<svg width="24" height="24" xmlns="http://www.w3.org/2000/svg">

 <g>
  <title>background</title>
  <rect fill="none" id="canvas_background" height="402" width="582" y="-1" x="-1"/>
 </g>
 <g>
  <title>Layer 1</title>
  <path id="svg_2" fill="#303C42" d="m8.5,15.00016c-0.55127,0 -1,0.44873 -1,1s0.44873,1 1,1s1,-0.44873 1,-1s-0.44873,-1 -1,-1zm0.33429,0.88038c-0.13806,0 -0.25,-0.11194 -0.25,-0.25s0.11194,-0.25 0.25,-0.25c0.13812,0 0.25,0.11193 0.25,0.25s-0.11188,0.25 -0.25,0.25z"/>
  <path id="svg_3" fill="#303C42" d="m15.5,15.00016c-0.55127,0 -1,0.44873 -1,1s0.44873,1 1,1s1,-0.44873 1,-1s-0.44873,-1 -1,-1zm0.33429,0.88038c-0.13806,0 -0.25,-0.11194 -0.25,-0.25s0.11194,-0.25 0.25,-0.25c0.13812,0 0.25,0.11193 0.25,0.25s-0.11188,0.25 -0.25,0.25z"/>
  <path id="svg_4" fill="#cbd2d6" d="m20.77734,4.58415l-1.5,-1c-0.19726,-0.13233 -0.46142,-0.10596 -0.63086,0.0625l-0.97564,0.97565c0.17193,-0.56427 0.46649,-1.19587 0.84515,-1.52356c0.20612,0.10559 0.42432,0.17681 0.65051,0.17681c0.36963,0 0.73926,-0.14062 1.02051,-0.42187c0.43164,-0.43164 0.70654,-1.72705 0.80469,-2.26367c0.02978,-0.16162 -0.02197,-0.32715 -0.13818,-0.44336s-0.28272,-0.16895 -0.44336,-0.13818c-0.53662,0.09814 -1.83204,0.37304 -2.26368,0.80468c-0.41894,0.41895 -0.52368,1.03314 -0.3186,1.55207c-0.44879,0.40362 -0.76831,1.00054 -0.9845,1.5838l-0.36926,-1.10706c-0.05664,-0.16992 -0.20019,-0.29687 -0.37598,-0.33203l-2.5,-0.5c-0.24951,-0.05225 -0.49267,0.09277 -0.57226,0.33203l-0.74463,2.23242l-0.92773,-0.92773c-0.13379,-0.1333 -0.33204,-0.18115 -0.51172,-0.12061l-1.5,0.5c-0.09131,0.03028 -0.17188,0.08643 -0.23242,0.16162l-0.52009,0.65021c-0.19561,-0.25323 -0.41424,-0.59979 -0.52117,-0.95105c0.54589,-0.22455 0.93188,-0.76074 0.93188,-1.38666c0,-0.63916 -0.76123,-1.81005 -1.08838,-2.28418c-0.1875,-0.2705 -0.63574,-0.2705 -0.82324,0c-0.32715,0.47413 -1.08838,1.64502 -1.08838,2.28418c0,0.66687 0.44031,1.22681 1.04321,1.42133c0.14527,0.74365 0.62628,1.39014 0.90644,1.71606l-0.49115,0.61408l-1.60498,-1.60498c-0.17579,-0.17627 -0.45459,-0.19629 -0.65332,-0.04639l-2,1.5c-0.12598,0.09424 -0.2002,0.24268 -0.2002,0.3999c0,0.06592 0.00635,1.63038 0.55273,2.72364c0.65186,1.30371 0.81006,3.03125 0.97754,4.85986c0.10889,1.18701 0.22119,2.41406 0.48291,3.53076c1.00684,4.29688 3.292,6.38574 6.98682,6.38574s5.97998,-2.08886 6.98682,-6.38574c0.26172,-1.1167 0.37402,-2.34375 0.48291,-3.53076c0.16748,-1.82861 0.32568,-3.55615 0.97754,-4.85986c0.54638,-1.09326 0.55273,-2.65772 0.55273,-2.72364l0,-1.5c0,-0.16699 -0.0835,-0.32324 -0.22266,-0.41601zm-12.27734,13.41601c-1.63965,0 -2.42432,-1.72363 -2.45703,-1.79687c-0.05713,-0.1294 -0.05713,-0.27686 0,-0.40625c0.03271,-0.07324 0.81738,-1.79688 2.45703,-1.79688s2.42432,1.72364 2.45703,1.79688c0.05713,0.12939 0.05713,0.27685 0,0.40625c-0.03271,0.07324 -0.81738,1.79687 -2.45703,1.79687zm3.49994,3.5c-0.82831,0 -1.49994,-0.56085 -1.49994,-0.92016c0,-0.17969 0.75018,0 1.50024,0c0.74994,0.00006 1.49976,-0.17963 1.49976,0c0,0.35931 -0.67163,0.92016 -1.50006,0.92016zm5.95709,-5.29687c-0.03271,0.07324 -0.81738,1.79687 -2.45703,1.79687s-2.42432,-1.72363 -2.45703,-1.79687c-0.05713,-0.1294 -0.05713,-0.27686 0,-0.40625c0.03271,-0.07324 0.81738,-1.79688 2.45703,-1.79688s2.42432,1.72364 2.45703,1.79688c0.05713,0.12939 0.05713,0.27685 0,0.40625z"/>
 </g>
</svg>